<?xml version="1.0" encoding="UTF-8"?>
<svg id="Livello_1" xmlns="http://www.w3.org/2000/svg" version="1.1" viewBox="0 0 800 800">
  <!-- Generator: Adobe Illustrator 29.8.1, SVG Export Plug-In . SVG Version: 2.1.1 Build 2)  -->
  <defs>
    <style>
      .st0 {
        fill: #6E0D25;
      }
    </style>
  </defs>
  <path class="st0" d="M375.05,196.18v.95c0,19.2-3.35,37.63-9.48,54.74l.37-1.14c-6.43,17.72-16.8,32.71-30.15,44.37l-.12.09c-12.95,11.66-30.18,18.77-49.08,18.77h-1.48.06c-25.94-.18-49.38-10.71-66.46-27.66-19.2-17.66-34.28-39.45-43.91-63.97l-.4-1.17c-8.83-21.48-14.09-46.37-14.43-72.46v-1.08c0-19.2,3.35-37.63,9.48-54.74l-.37,1.14c6.43-17.72,16.8-32.71,30.15-44.37l.12-.09c12.95-11.66,30.22-18.8,49.11-18.8.55,0,1.11,0,1.66.03h-.09c25.94.15,49.42,10.68,66.46,27.66,18.98,17.63,33.97,39.35,43.57,63.72l.4,1.17c8.89,21.54,14.15,46.55,14.43,72.74v.09h.15ZM210.58,428.43c.03.77.03,1.66.03,2.58,0,24.06-7.57,46.34-20.46,64.62l.25-.37c-12.09,17.26-31.91,28.43-54.31,28.43-1.02,0-2.03-.03-3.05-.06h.15c-26.25-.34-50.09-10.4-68.12-26.77l.09.09C26.28,463.45,1.38,414.58.03,359.91v-.25C0,358.92,0,358.03,0,357.14,0,332.98,7.57,310.58,20.46,292.22l-.25.37c12.03-17.42,31.88-28.68,54.37-28.68.98,0,2,.03,2.98.06h-.15c26.25.34,50.09,10.4,68.12,26.77l-.09-.09c38.95,33.69,63.82,82.74,65.14,137.63v.22-.06ZM400.15,415.45c46.8,2.68,89.11,19.88,123.02,47.11l-.43-.34c43.66,31.17,80.25,68.98,109.14,112.37l.98,1.57c25.35,33.94,41.57,76.03,44.28,121.75l.03.62c.03.8.06,1.75.06,2.68,0,12.43-3.05,24.18-8.43,34.49l.18-.4c-5.29,9.57-13.29,17.05-23.02,21.51l-.31.12c-8.95,4.28-19.38,7.63-30.28,9.51l-.74.09c-10.34,1.69-22.22,2.65-34.34,2.65h-2.31.12c-33.05-2.28-63.72-10.03-91.94-22.34l1.78.71c-25.69-11.38-55.51-19.11-86.77-21.57l-.95-.06c-33.94,2.52-65.38,10.15-94.62,22.12l2.06-.74c-28.34,11.6-61.2,19.26-95.54,21.35l-.86.03c-58.79.04-88.18-23.33-88.18-70.12,1.48-34.12,11.29-65.66,27.45-92.98l-.52.92c18.98-35.35,41.26-65.78,67.2-92.68l-.12.12c26-27.11,55.63-50.43,88.25-69.2l1.91-1.02c26.43-16.62,58.25-26.98,92.4-28.34h.37l.12.06ZM515.08,314h-1.42c-18.89,0-36.12-7.14-49.14-18.83l.06.06c-13.48-11.78-23.88-26.74-30.03-43.75l-.25-.74c-5.78-15.97-9.14-34.4-9.14-53.6v-1.02.06c.28-26.31,5.54-51.29,14.92-74.18l-.49,1.35c10.03-25.57,24.98-47.26,43.88-64.8l.12-.09c17.05-16.95,40.52-27.48,66.43-27.63h1.45c18.89,0,36.12,7.14,49.14,18.83l-.06-.06c13.48,11.78,23.88,26.74,30.03,43.75l.25.74c5.88,16.06,9.26,34.62,9.26,53.94v.62-.03c-.31,26.22-5.6,51.14-14.92,73.94l.49-1.35c-10.03,25.69-25.11,47.48-44.18,65.02l-.12.12c-17.08,16.89-40.52,27.42-66.43,27.57h-.03l.18.09ZM722.77,264.03c.86-.03,1.85-.06,2.83-.06,22.49,0,42.34,11.26,54.22,28.46l.15.22c12.65,18.03,20.22,40.4,20.22,64.58,0,.89,0,1.75-.03,2.65v-.12c-1.35,54.92-26.25,103.78-64.89,137.05l-.25.22c-17.94,16.28-41.78,26.34-67.97,26.68h-.06c-.86.03-1.88.06-2.89.06-22.4,0-42.22-11.14-54.15-28.22l-.15-.22c-12.65-17.91-20.22-40.22-20.22-64.25,0-.89,0-1.82.03-2.71v.12c1.32-55.11,26.18-104.15,64.89-137.66l.25-.22c17.94-16.22,41.72-26.28,67.85-26.62h.06l.12.03Z"/>
</svg>